<svg width="72" height="72" viewBox="0 0 72 72" fill="none" xmlns="http://www.w3.org/2000/svg">
<g filter="url(#filter0_d_3_108)">
<g filter="url(#filter1_i_3_108)">
<rect x="5" y="1" width="62" height="62" rx="13" fill="black"/>
</g>
<path fill-rule="evenodd" clip-rule="evenodd" d="M47.3571 50.0725V9.03687C47.3571 8.48458 47.8048 8.03687 48.3571 8.03687C48.8845 8.03687 49.3166 8.44522 49.3544 8.96303C49.3621 8.96645 49.3698 8.96997 49.3774 8.97361C51.6018 10.0304 53.3666 10.5191 54.9878 10.5307C56.5946 10.5421 58.1567 10.0852 59.9782 9.08264C60.4621 8.81634 61.0702 8.99269 61.3365 9.47653C61.6028 9.96037 61.4264 10.5685 60.9426 10.8348C58.9115 11.9527 57.0123 12.5451 54.9736 12.5306C53.1919 12.5179 51.3788 12.042 49.3571 11.162V16.0622C49.3725 16.0679 49.3879 16.074 49.4032 16.0806C51.5352 16.9925 53.2373 17.4188 54.8091 17.4301C56.3688 17.4414 57.8806 17.0445 59.6332 16.1815C60.1287 15.9376 60.7282 16.1415 60.9721 16.6369C61.2161 17.1324 61.0122 17.7319 60.5167 17.9758C58.5604 18.9391 56.7401 19.4441 54.7947 19.4301C53.0747 19.4177 51.3209 18.9998 49.3571 18.2243V52.9078C49.3706 52.9799 49.3829 53.0532 49.3939 53.1279C48.8959 55.7562 46.1231 57.0344 41.2898 57C36.4564 56.9656 32.4789 55.9667 32.5 53C32.5211 50.0333 36.1666 48.9656 41 49C43.733 49.0194 45.8999 49.2587 47.3571 50.0725ZM56.885 26.677L49.866 22.6279C44.8283 26.9959 38.3471 28.175 33.812 25.0582C29.7181 22.2445 28.3242 16.6956 29.7635 11.0313L21.4991 6.26376C21.4624 6.24259 21.4255 6.2223 21.3885 6.20287C21.5619 14.8662 26.4857 23.1418 34.8371 27.215C42.1171 30.7658 50.31 30.298 56.885 26.677ZM19.0973 6C16.2519 16.7685 21.3357 28.4162 31.7692 33.505C41.4362 38.2199 52.7127 35.8493 59.6735 28.4188C60.975 29.7619 60.7537 32.0889 59.0086 33.0972L42.1982 42.8107C39.339 42.6208 36.408 42.0169 33.5097 40.9621C25.75 38.1378 19.8883 32.6858 17.0063 26.4394L17 8.86343C16.9995 7.45926 17.9233 6.37493 19.0973 6ZM48.0459 21.5779L31.9691 12.3037C32.1974 15.9547 33.7348 19.1644 36.5384 21.0913C39.7901 23.3262 44.0425 23.3523 48.0459 21.5779ZM31.3223 46.9719C32.1076 47.2577 32.8953 47.5104 33.6833 47.7308L27.2105 51.4709C26.8915 51.3514 26.5737 51.2228 26.2573 51.0853C22.1153 49.2843 18.9313 46.2393 17.012 42.653L17.0098 36.2497C20.2373 40.8625 25.1864 44.7386 31.3223 46.9719ZM17.0147 50.2231C18.3707 51.8773 20.0387 53.3334 21.9768 54.4951L21.5163 54.7612C19.5168 55.9166 17.0163 54.4741 17.0154 52.1647L17.0147 50.2231Z" fill="url(#paint0_linear_3_108)"/>
</g>
<defs>
<filter id="filter0_d_3_108" x="0" y="0" width="72" height="72" filterUnits="userSpaceOnUse" color-interpolation-filters="sRGB">
<feFlood flood-opacity="0" result="BackgroundImageFix"/>
<feColorMatrix in="SourceAlpha" type="matrix" values="0 0 0 0 0 0 0 0 0 0 0 0 0 0 0 0 0 0 127 0" result="hardAlpha"/>
<feOffset dy="4"/>
<feGaussianBlur stdDeviation="2.5"/>
<feComposite in2="hardAlpha" operator="out"/>
<feColorMatrix type="matrix" values="0 0 0 0 0 0 0 0 0 0 0 0 0 0 0 0 0 0 0.25 0"/>
<feBlend mode="normal" in2="BackgroundImageFix" result="effect1_dropShadow_3_108"/>
<feBlend mode="normal" in="SourceGraphic" in2="effect1_dropShadow_3_108" result="shape"/>
</filter>
<filter id="filter1_i_3_108" x="3" y="0" width="64" height="63" filterUnits="userSpaceOnUse" color-interpolation-filters="sRGB">
<feFlood flood-opacity="0" result="BackgroundImageFix"/>
<feBlend mode="normal" in="SourceGraphic" in2="BackgroundImageFix" result="shape"/>
<feColorMatrix in="SourceAlpha" type="matrix" values="0 0 0 0 0 0 0 0 0 0 0 0 0 0 0 0 0 0 127 0" result="hardAlpha"/>
<feOffset dx="-2" dy="-1"/>
<feGaussianBlur stdDeviation="2.5"/>
<feComposite in2="hardAlpha" operator="arithmetic" k2="-1" k3="1"/>
<feColorMatrix type="matrix" values="0 0 0 0 0.85098 0 0 0 0 0.85098 0 0 0 0 0.85098 0 0 0 0.62 0"/>
<feBlend mode="normal" in2="shape" result="effect1_innerShadow_3_108"/>
</filter>
<linearGradient id="paint0_linear_3_108" x1="23" y1="21.9359" x2="42.4636" y2="55.8513" gradientUnits="userSpaceOnUse">
<stop stop-color="#A94AD6"/>
<stop offset="1" stop-color="#FFE863"/>
</linearGradient>
</defs>
</svg>
