<svg width="84" height="27" viewBox="0 0 84 27" fill="none" xmlns="http://www.w3.org/2000/svg">
<rect x="0.5" y="0.5" width="83" height="26" rx="13" stroke="#B3B3B3"/>
<path d="M19.5 7C15.9104 7 13 9.91041 13 13.5C13 14.995 13.5054 16.3733 14.3544 17.4716V17.5711C14.3756 17.5645 14.3955 17.5579 14.4167 17.5499C15.608 19.0436 17.4426 20 19.5 20C21.5906 20 23.4504 19.0131 24.639 17.4809C24.6416 17.4822 24.643 17.4822 24.6456 17.4836V17.473C25.4946 16.3733 26 14.995 26 13.5C26 9.91041 23.0896 7 19.5 7ZM25.4521 13.2294H22.2035C22.1862 12.4719 22.096 11.7026 21.9276 10.9199C22.8574 10.8018 23.7436 10.6148 24.57 10.3681C25.0887 11.2051 25.4057 12.1828 25.4521 13.2294ZM17.3364 13.2294C17.355 12.4746 17.4479 11.7185 17.6177 10.9531C18.2716 11.0247 18.9455 11.0632 19.6353 11.0632C20.2322 11.0632 20.8172 11.034 21.3877 10.9796C21.5535 11.737 21.645 12.4839 21.6636 13.2294H17.3364ZM21.6636 13.7706C21.6437 14.6037 21.5309 15.4381 21.3266 16.2857C20.7761 16.2353 20.211 16.2088 19.6353 16.2088C18.9681 16.2088 18.3141 16.2446 17.68 16.3122C17.4717 15.4553 17.3577 14.613 17.3364 13.7719H21.6636V13.7706ZM24.253 9.9051C23.4849 10.1227 22.6624 10.2871 21.8029 10.3906C21.572 9.50714 21.2417 8.6051 20.8013 7.68449C22.2008 7.99622 23.4146 8.8001 24.253 9.9051ZM19.5 7.54122C19.7335 7.54122 19.9643 7.55449 20.1911 7.58102C20.6581 8.56531 21.0136 9.5151 21.259 10.4477C20.7297 10.4954 20.1871 10.5193 19.6353 10.5193C18.9906 10.5193 18.3592 10.4861 17.7477 10.4211C17.9931 9.49653 18.3459 8.55469 18.8089 7.57969C19.0357 7.55582 19.2665 7.54122 19.5 7.54122ZM18.1987 7.68449C17.7636 8.59449 17.4359 9.48459 17.2078 10.3574C16.3601 10.242 15.5522 10.0669 14.7988 9.8401C15.6332 8.76827 16.827 7.98959 18.1987 7.68449ZM14.4738 10.2991C15.2869 10.5564 16.1611 10.7554 17.0804 10.8854C16.9066 11.68 16.8151 12.4613 16.7965 13.2294H13.5479C13.5956 12.1536 13.9299 11.152 14.4738 10.2991ZM14.625 16.9251C13.9909 16.0244 13.6009 14.9419 13.5479 13.7706H16.7965C16.8164 14.6554 16.9345 15.5243 17.1388 16.3772C16.2553 16.5006 15.4116 16.685 14.625 16.9251ZM14.9765 17.3774C15.6995 17.1705 16.4702 17.01 17.2767 16.9026C17.5089 17.7184 17.818 18.5222 18.1973 19.3142C16.9212 19.0316 15.799 18.3365 14.9765 17.3774ZM18.8089 19.419C18.3897 18.5368 18.0607 17.6812 17.8206 16.8415C18.4096 16.7818 19.0171 16.7513 19.6366 16.7513C20.1646 16.7513 20.6819 16.7739 21.1887 16.8177C20.9459 17.664 20.6143 18.5276 20.1911 19.419C19.9643 19.4455 19.7335 19.4588 19.5 19.4588C19.2665 19.4588 19.0357 19.4442 18.8089 19.419ZM20.8013 19.3155C21.186 18.513 21.4991 17.6985 21.7312 16.8707C22.551 16.9662 23.3377 17.1174 24.0752 17.3164C23.2488 18.3073 22.1053 19.025 20.8013 19.3155ZM24.4214 16.8601C23.6202 16.6293 22.7646 16.4542 21.8692 16.3441C22.0695 15.5004 22.1849 14.6435 22.2035 13.7706H25.4521C25.4004 14.9141 25.0277 15.9727 24.4214 16.8601Z" fill="white"/>
<path d="M30.043 17V7.73047H36.125V9.05469H31.5898V11.5625H35.6797V12.8633H31.5898V15.6875H36.2422V17H30.043ZM37.4141 17V10.2383H38.8555V11.0938H38.8672C38.9844 10.8438 39.1992 10.6055 39.5117 10.3789C39.832 10.1445 40.2422 10.0273 40.7422 10.0273C41.4141 10.0273 41.9492 10.2344 42.3477 10.6484C42.7461 11.0625 42.9453 11.7305 42.9453 12.6523V17H41.457V12.8516C41.457 11.8125 41.1055 11.293 40.4023 11.293C39.9727 11.293 39.6133 11.4648 39.3242 11.8086C39.043 12.1523 38.9023 12.5781 38.9023 13.0859V17H37.4141ZM45.6289 13.4961C45.6289 14.1836 45.7617 14.7188 46.0273 15.1016C46.3008 15.4844 46.6602 15.6758 47.1055 15.6758C47.543 15.6758 47.8945 15.4883 48.1602 15.1133C48.4258 14.7383 48.5586 14.1953 48.5586 13.4844C48.5586 12.7891 48.4258 12.25 48.1602 11.8672C47.8945 11.4844 47.5469 11.293 47.1172 11.293C46.6641 11.293 46.3008 11.4922 46.0273 11.8906C45.7617 12.2891 45.6289 12.8242 45.6289 13.4961ZM44.1172 13.5078C44.1172 12.4531 44.3789 11.6094 44.9023 10.9766C45.4258 10.3438 46.0977 10.0273 46.918 10.0273C47.332 10.0273 47.6797 10.1328 47.9609 10.3438C48.25 10.5469 48.4531 10.7734 48.5703 11.0234V10.2383H50.0469V16.0625C50.0469 17.3359 49.7969 18.2773 49.2969 18.8867C48.8047 19.5039 48.043 19.8125 47.0117 19.8125C45.8789 19.8125 45 19.375 44.375 18.5L45.3594 17.8203C45.8125 18.3516 46.3711 18.6172 47.0352 18.6172C47.4648 18.6172 47.8203 18.4531 48.1016 18.125C48.3828 17.7969 48.5352 17.3672 48.5586 16.8359C48.5742 16.5234 48.582 16.2656 48.582 16.0625C48.4336 16.3125 48.2109 16.5234 47.9141 16.6953C47.6172 16.8594 47.3008 16.9414 46.9648 16.9414C46.1133 16.9414 45.4258 16.6289 44.9023 16.0039C44.3789 15.3711 44.1172 14.5391 44.1172 13.5078ZM51.7695 17V7.42578H53.2461V17H51.7695ZM55.0625 9.23047V7.60156H56.6562V9.23047H55.0625ZM55.1328 17V10.2383H56.5977V17H55.1328ZM57.8516 15.5938L58.918 14.9727C59.3867 15.6602 59.9961 16.0039 60.7461 16.0039C61.1133 16.0039 61.4023 15.9336 61.6133 15.793C61.832 15.6445 61.9414 15.4492 61.9414 15.207C61.9414 15.0117 61.8516 14.8398 61.6719 14.6914C61.5 14.543 61.3164 14.4336 61.1211 14.3633C60.9258 14.2852 60.6328 14.1836 60.2422 14.0586C60.1719 14.0352 60.1211 14.0195 60.0898 14.0117C59.8086 13.918 59.5703 13.8281 59.375 13.7422C59.1875 13.6484 58.9883 13.5273 58.7773 13.3789C58.5664 13.2227 58.4062 13.0312 58.2969 12.8047C58.1875 12.5703 58.1328 12.3008 58.1328 11.9961C58.1328 11.4023 58.3828 10.9258 58.8828 10.5664C59.3828 10.207 60.0039 10.0273 60.7461 10.0273C61.3008 10.0273 61.8242 10.1758 62.3164 10.4727C62.8086 10.7617 63.1758 11.1328 63.418 11.5859L62.4336 12.1836C61.9727 11.5508 61.4141 11.2344 60.7578 11.2344C60.3984 11.2344 60.1211 11.3086 59.9258 11.457C59.7383 11.5977 59.6445 11.7852 59.6445 12.0195C59.6445 12.2148 59.7266 12.3906 59.8906 12.5469C60.0625 12.6953 60.2383 12.8047 60.418 12.875C60.5977 12.9453 60.8516 13.0352 61.1797 13.1445C61.2656 13.168 61.3281 13.1875 61.3672 13.2031C62.7578 13.6484 63.4531 14.3203 63.4531 15.2188C63.4531 15.7734 63.2188 16.2461 62.75 16.6367C62.2891 17.0195 61.6328 17.2109 60.7812 17.2109C60.125 17.2109 59.5391 17.0664 59.0234 16.7773C58.5156 16.4883 58.125 16.0938 57.8516 15.5938ZM64.6836 17V7.42578H66.1484V10.9297H66.1836C66.3633 10.6719 66.6094 10.457 66.9219 10.2852C67.2422 10.1133 67.5781 10.0273 67.9297 10.0273C68.5781 10.0273 69.1172 10.2383 69.5469 10.6602C69.9766 11.0742 70.1914 11.7383 70.1914 12.6523V17H68.7148V12.8398C68.7148 11.8086 68.3633 11.293 67.6602 11.293C67.2305 11.293 66.8711 11.4766 66.582 11.8438C66.293 12.2109 66.1484 12.6406 66.1484 13.1328V17H64.6836Z" fill="white"/>
</svg>
